<svg width="59" height="18" viewBox="0 0 59 18" fill="none" xmlns="http://www.w3.org/2000/svg">
<path d="M53.6441 17.9998H10.698C9.36695 17.9998 7.59757 17.6946 7.59757 15.0568C7.59757 13.6802 7.52034 13.2544 5.77876 12.6092C5.59003 12.5388 5.38958 12.4693 5.18218 12.3963C3.11868 11.6738 0 10.5831 0 6.67037C0 2.74305 3.93484 3.47843e-05 9.56787 3.47843e-05H18.2952C19.1305 -0.00382858 19.9345 0.31426 20.5367 0.886896C21.1393 1.45953 21.4925 2.24164 21.5216 3.06759C21.5216 4.4374 20.1557 7.43965 16.0977 7.43965H9.12838C8.21073 7.43965 8.21073 7.71309 8.21073 7.91313C8.21073 8.36213 8.21073 8.65832 9.05115 9.09578C9.81998 9.53621 10.5632 10.0183 11.2778 10.5399C12.2323 11.234 13.2277 11.871 14.2581 12.4479C15.3991 13.1167 16.7238 13.4125 18.0441 13.2936H21.4348C21.9954 13.2936 22.4783 12.4763 22.4783 12.0749L22.4757 11.8512C22.3958 10.612 22.726 9.38041 23.4159 8.34281C24.3843 6.83784 26.906 3.38734 27.7156 2.30051C28.9023 0.7062 31.3636 0.292787 33.569 1.31491C34.7239 1.85021 39.7066 4.87399 44.1026 7.54139C47.1081 9.36538 50.514 11.4322 50.9215 11.6099V11.6104C51.0542 11.6601 51.1978 11.6765 51.3384 11.6576C51.1878 11.2596 50.9232 10.5784 50.6585 9.89678C50.3427 9.08418 50.0264 8.27114 49.9001 7.92685C49.6029 7.47183 49.1157 7.1722 48.572 7.1091C47.6774 6.80089 46.9471 6.14797 46.5475 5.29841C46.124 4.53689 46.0707 3.62772 46.4017 2.82287C47.1784 1.05647 48.8037 0.40349 50.8594 1.02724C51.7202 1.28909 52.8309 1.67371 53.811 2.01327C54.7135 2.32534 55.5661 2.62024 56.0616 2.76448C57.6083 3.21391 57.4734 4.41846 57.4005 5.06496C57.3897 5.16154 57.3784 5.26069 57.3706 5.36243C57.348 5.65562 57.3003 6.16816 57.2491 6.72366C57.1771 7.50149 57.0703 8.65755 57.0604 8.96052C57.1385 8.9867 57.2187 9.00645 57.3003 9.02018C58.4666 9.22923 58.943 9.82591 58.943 11.0811C58.943 11.4121 58.9577 11.7216 58.9716 12.0203H58.9712C59.0193 12.6333 59.0072 13.2501 58.9347 13.861C58.7946 14.8316 57.9993 18 53.6445 18L53.6441 17.9998ZM9.56843 1.53913C5.58627 1.53913 1.55558 3.30168 1.55558 6.67097C1.55558 9.49597 3.75791 10.2665 5.70123 10.9464C5.91817 11.0228 6.12773 11.0962 6.32558 11.1688C8.74484 12.0668 9.15315 13.0937 9.15315 15.0575C9.15315 16.1994 9.44211 16.4621 10.6986 16.4621L53.6447 16.4616C56.4089 16.4616 57.2099 14.9292 57.3956 13.6435C57.4528 13.1279 57.4602 12.6081 57.4181 12.0912C57.4029 11.7701 57.3878 11.4375 57.3878 11.0812C57.4034 10.9185 57.3838 10.7545 57.33 10.6004C57.3348 10.6124 57.271 10.5789 57.0224 10.5343C56.015 10.3527 55.5043 9.83672 55.5043 9.00052C55.5043 8.72751 55.582 7.86644 55.7008 6.58422C55.7512 6.03776 55.798 5.5338 55.8206 5.24529C55.8297 5.12639 55.8427 5.00963 55.8553 4.8963L55.8557 4.89587C55.8874 4.71515 55.8943 4.53142 55.8757 4.34898C55.7989 4.2979 55.7134 4.26141 55.6232 4.24081C55.0899 4.08584 54.2196 3.7845 53.298 3.46555C52.3305 3.13072 51.2345 2.75168 50.4023 2.49798C48.6921 1.98072 48.114 2.78474 47.8281 3.43593C47.688 3.8227 47.7275 4.25111 47.9362 4.60606C48.141 5.04133 48.4885 5.39506 48.9219 5.61011C49.9884 5.7625 50.9056 6.43602 51.3616 7.4019C51.4866 7.74102 51.7981 8.54335 52.1101 9.34567C52.4259 10.1583 52.7422 10.9713 52.8685 11.3156V11.3152C53.0607 11.8024 52.9383 12.3557 52.5591 12.7193C52.2567 12.9687 51.891 13.1309 51.5018 13.188C51.1122 13.2447 50.7143 13.1945 50.3524 13.0421C49.961 12.8931 48.003 11.7135 43.2898 8.85331C39.1446 6.33821 33.9852 3.20717 32.9093 2.70837C31.1868 1.90865 29.5936 2.37225 28.9676 3.21319C28.1666 4.28894 25.6745 7.6981 24.7282 9.16879C24.2045 9.95391 23.9593 10.8893 24.0305 11.8272L24.0331 12.0749C24.0331 13.1729 22.997 14.8321 21.4346 14.8321H18.0443C16.4745 14.9493 14.9052 14.5942 13.5429 13.8134C12.45 13.2064 11.3952 12.5337 10.3851 11.7998C9.72302 11.3177 9.0358 10.87 8.32727 10.4579C6.85857 9.69292 6.65642 8.78289 6.65642 7.91321C6.65642 7.30794 6.89722 5.90119 9.1291 5.90119H16.0984C19.2948 5.90119 19.9673 3.53379 19.9673 3.06763H19.9669C19.9291 2.65339 19.7374 2.26748 19.4289 1.98502C19.1199 1.70256 18.716 1.54374 18.2956 1.53858L9.56843 1.53913Z" fill="#F3EEDA"/>
</svg>
