<svg width="35" height="17" viewBox="0 0 35 17" fill="none" xmlns="http://www.w3.org/2000/svg">
<path d="M28.1518 13.9091H26.6301V10.8182H25.1084V13.158L23.7258 10.8182H22.8395L24.6649 13.9091H23.5866C23.1659 13.9091 22.8256 14.2544 22.8256 14.6819V16.2272C22.8256 16.6545 23.1657 17 23.5866 17H28.1518C28.5725 17 28.9128 16.6547 28.9128 16.2272V14.6819C28.9128 14.2544 28.5725 13.9091 28.1518 13.9091Z" fill="#F3EEDA"/>
<path d="M34.2388 0.773073H29.6736V1.54585H30.4345V6.18205H34.2388V0.773073Z" fill="#F3EEDA"/>
<path d="M30.4348 15.4543H29.6739V16.2268H34.2391V10.8181H30.4348V15.4543Z" fill="#F3EEDA"/>
<path d="M25.1088 3.84205V6.18175H26.6305V3.0909H28.1522C28.5729 3.0909 28.9131 2.74558 28.9131 2.31813V0.772776C28.9131 0.345533 28.5731 0 28.1522 0H23.5869C23.1662 0 22.826 0.345324 22.826 0.772776V2.31813C22.826 2.74537 23.166 3.0909 23.5869 3.0909H24.665L22.8396 6.18175H23.726L25.1088 3.84205Z" fill="#F3EEDA"/>
<path d="M14.4563 10.0456H12.1737C11.753 10.0456 11.4128 9.70024 11.4128 9.27278V7.72744C11.4128 7.30019 11.7528 6.95466 12.1737 6.95466H14.4563V3.86401H9.13031L9.1305 3.09123H10.6522C11.0729 3.09123 11.4132 2.74591 11.4132 2.31846V0.773109C11.4132 0.345865 11.0731 0.000332025 10.6522 0.000332025L6.08695 0.000530373C5.66625 0.000530373 5.3262 0.345856 5.3262 0.773104V2.31845C5.3262 2.7457 5.66624 3.09123 6.08715 3.09123H7.60885V3.86401H6.08695V6.71686L5.3262 6.95488V7.72766L4.56525 7.72746V3.09126H0V13.9088H4.56525V9.27261H5.3262V10.0454L6.08715 10.2834L6.08696 13.1363H7.60866V13.909H6.08696C5.66625 13.909 5.32601 14.2544 5.32601 14.6818V16.2272C5.32601 16.6544 5.66605 16.9999 6.08696 16.9999H10.6522C11.0729 16.9999 11.4132 16.6546 11.4132 16.2272V14.6818C11.4132 14.2546 11.0731 13.909 10.6522 13.909H9.13051V13.1363H14.4565L14.4563 10.0456Z" fill="#F3EEDA"/>
<path d="M17.4998 6.95467C17.9206 6.95467 18.2608 7.29999 18.2608 7.72745V9.27279C18.2608 9.70004 17.9208 10.0456 17.4998 10.0456H15.2172V13.1364C15.2172 13.1364 19.0215 10.0456 21.3042 10.0456H34.9998L35 6.95472H21.3044C19.0218 6.95472 15.2174 3.86387 15.2174 3.86387V6.95472L17.4998 6.95467Z" fill="#F3EEDA"/>
<path d="M12.1739 7.72699H17.4999V9.27234H12.1739V7.72699Z" fill="#F3EEDA"/>
</svg>
