<svg width="1146" height="334" viewBox="0 0 1146 334" fill="none" xmlns="http://www.w3.org/2000/svg">
<rect width="1146" height="334" fill="#1E1E1E"/>
<rect width="1707" height="2367" transform="translate(-281 -1902)" fill="#101112"/>
<path d="M12.5002 74.4374V322.05H1100.59L1133.5 289.137V40.85H46.0879L46.4254 41.1874L12.8378 74.775L12.5002 74.4374Z" fill="#F3EEDA"/>
<line x1="675.5" y1="31.2251" x2="675.5" y2="86.9236" stroke="#101112" stroke-width="7"/>
<line x1="688.5" y1="31.2251" x2="688.5" y2="86.9236" stroke="#101112" stroke-width="7"/>
<line x1="701.5" y1="31.2251" x2="701.5" y2="86.9236" stroke="#101112" stroke-width="7"/>
<line x1="675.5" y1="196.093" x2="675.5" y2="251.791" stroke="#101112" stroke-width="7"/>
<line x1="688.5" y1="196.093" x2="688.5" y2="251.791" stroke="#101112" stroke-width="7"/>
<line x1="701.5" y1="196.093" x2="701.5" y2="251.791" stroke="#101112" stroke-width="7"/>
<line x1="675.5" y1="278.527" x2="675.5" y2="324" stroke="#101112" stroke-width="7"/>
<line x1="688.5" y1="278.527" x2="688.5" y2="324" stroke="#101112" stroke-width="7"/>
<line x1="701.5" y1="278.527" x2="701.5" y2="324" stroke="#101112" stroke-width="7"/>
<line x1="675.5" y1="113.659" x2="675.5" y2="169.357" stroke="#101112" stroke-width="7"/>
<line x1="688.5" y1="113.659" x2="688.5" y2="169.357" stroke="#101112" stroke-width="7"/>
<line x1="701.5" y1="113.659" x2="701.5" y2="169.357" stroke="#101112" stroke-width="7"/>
<path d="M0.49505 66.2706L-0.324609 66.5975V71.3627H0.150391V80.8931H-0.324609V90.4236H0.150391V99.954H-0.324609V109.484H0.150391V119.015H-0.324609V128.545H0.150391V138.076H-0.324609V147.606H0.150391V157.137H-0.324609V166.667H0.150391V176.198H-0.324609V185.728H0.150391V195.259H-0.324609V204.789H0.150391V214.319H-0.324609V223.85H0.150391V233.38H-0.324609V242.911H0.150391V252.441H-0.324609V261.972H0.150391V271.502H-0.324609V281.033H0.150391V290.563H-0.324609V300.094H0.150391V309.624H-0.324609V319.154H0.150391V328.685H-0.324609V333.45L0.150391 333.925H4.86252V333.45H14.2868V333.925H23.711V333.45H33.1353V333.925H42.5595V333.45H51.9838V333.925H61.4081V333.45H70.8323V333.925H80.2566V333.45H89.6808V333.925H99.1051V333.45H108.529V333.925H117.954V333.45H127.378V333.925H136.802V333.45H146.226V333.925H155.651V333.45H165.075V333.925H174.499V333.45H183.923V333.925H193.348V333.45H202.772V333.925H212.196V333.45H221.62V333.925H231.045V333.45H240.469V333.925H249.893V333.45H259.317V333.925H268.742V333.45H278.166V333.925H287.59V333.45H297.014V333.925H306.439V333.45H315.863V333.925H325.287V333.45H334.711V333.925H344.136V333.45H353.56V333.925H362.984V333.45H372.408V333.925H381.833V333.45H391.257V333.925H400.681V333.45H410.105V333.925H419.53V333.45H428.954V333.925H438.378V333.45H447.803V333.925H457.227V333.45H466.651V333.925H476.075V333.45H485.5V333.925H494.924V333.45H504.348V333.925H513.772V333.45H523.197V333.925H532.621V333.45H542.045V333.925H551.469V333.45H560.894V333.925H570.318V333.45H579.742V333.925H589.166V333.45H598.591V333.925H608.015V333.45H617.439V333.925H626.863V333.45H636.288V333.925H645.712V333.45H655.136V333.925H664.56V333.45H673.985V333.925H683.409V333.45H692.833V333.925H702.257V333.45H711.682V333.925H721.106V333.45H730.53V333.925H739.954V333.45H749.379V333.925H758.803V333.45H768.227V333.925H777.651V333.45H787.076V333.925H796.5V333.45H805.924V333.925H815.349V333.45H824.773V333.925H834.197V333.45H843.621V333.925H853.046V333.45H862.47V333.925H871.894V333.45H881.318V333.925H890.743V333.45H900.167V333.925H909.591V333.45H919.015V333.925H928.44V333.45H937.864V333.925H947.288V333.45H956.712V333.925H966.137V333.45H975.561V333.925H984.985V333.45H994.409V333.925H1003.83V333.45H1013.26V333.925H1022.68V333.45H1032.11V333.925H1041.53V333.45H1050.96V333.925H1060.38V333.45H1069.8V333.925H1079.23V333.45H1088.65V333.925H1098.08V333.45H1107.5V333.925H1112.21L1112.56 333.777L1115.36 330.821L1115.02 330.494L1120.62 324.583L1120.97 324.909L1126.57 318.998L1126.23 318.671L1131.83 312.759L1132.18 313.086L1137.79 307.174L1137.44 306.848L1143.05 300.936L1143.39 301.263L1146.19 298.307L1146.33 297.98V293.202H1145.85V283.645H1146.33V274.089H1145.85V264.533H1146.33V254.976H1145.85V245.42H1146.33V235.863H1145.85V226.307H1146.33V216.75H1145.85V207.194H1146.33V197.638H1145.85V188.081H1146.33V178.525H1145.85V168.968H1146.33V159.412H1145.85V149.855H1146.33V140.299H1145.85V130.743H1146.33V121.186H1145.85V111.63H1146.33V102.073H1145.85V92.5169H1146.33V82.9604H1145.85V73.404H1146.33V63.8476H1145.85V54.2912H1146.33V44.7347H1145.85V35.1783H1146.33V30.4001L1145.85 29.9251H1141.06V30.4001H1131.48V29.9251H1121.9V30.4001H1112.32V29.9251H1102.74V30.4001H1093.16V29.9251H1083.58V30.4001H1073.99V29.9251H1064.41V30.4001H1054.83V29.9251H1045.25V30.4001H1035.67V29.9251H1026.09V30.4001H1016.51V29.9251H1006.93V30.4001H997.348V29.9251H987.767V30.4001H978.186V29.9251H968.606V30.4001H959.025V29.9251H949.444V30.4001H939.863V29.9251H930.282V30.4001H920.702V29.9251H911.121V30.4001H901.54V29.9251H891.959V30.4001H882.378V29.9251H872.798V30.4001H863.217V29.9251H853.636V30.4001H844.055V29.9251H834.475V30.4001H824.894V29.9251H815.313V30.4001H805.732V29.9251H796.151V30.4001H786.571V29.9251H776.99V30.4001H767.409V29.9251H757.828V30.4001H748.248V29.9251H738.667V30.4001H729.086V29.9251H719.505V30.4001H709.924V29.9251H700.344V30.4001H690.763V29.9251H681.182V30.4001H671.601V29.9251H662.021V30.4001H652.44V29.9251H642.859V30.4001H633.278V29.9251H623.697V30.4001H614.117V29.9251H604.536V30.4001H594.955V29.9251H585.374V30.4001H575.793V29.9251H566.213V30.4001H556.632V29.9251H547.051V30.4001H537.47V29.9251H527.889V30.4001H518.308V29.9251H508.728V30.4001H499.147V29.9251H489.566V30.4001H479.985V29.9251H470.404V30.4001H460.824V29.9251H451.243V30.4001H441.662V29.9251H432.081V30.4001H422.5V29.9251H412.92V30.4001H403.339V29.9251H393.758V30.4001H384.177V29.9251H374.596V30.4001H365.015V29.9251H355.435V30.4001H345.854V29.9251H336.273V30.4001H326.692V29.9251H317.111V30.4001H307.531V29.9251H297.95V30.4001H288.369V29.9251H278.788V30.4001H269.207V29.9251H259.627V30.4001H250.046V29.9251H240.465V30.4001H230.884V29.9251H221.303V30.4001H211.723V29.9251H202.142V30.4001H192.561V29.9251H182.98V30.4001H173.399V29.9251H163.818V30.4001H154.238V29.9251H144.657V30.4001H135.076V29.9251H125.495V30.4001H115.914V29.9251H106.334V30.4001H96.7528V29.9251H87.172V30.4001H77.5912V29.9251H68.0104V30.4001H58.4295V29.9251H48.8487V30.4001H39.2679V29.9251H34.4781L34.1335 30.727L34.1682 30.7636L31.6175 33.4532L31.9622 33.7801L26.2409 39.813L25.8963 39.4861L20.175 45.519L20.5197 45.8459L14.7984 51.8788L14.4537 51.5519L8.73245 57.5848L9.07711 57.9117L3.35584 63.9446L3.01118 63.6177L0.495199 66.2708L0.49505 66.2706Z" stroke="#F3EEDA" stroke-width="0.95" stroke-linejoin="bevel" stroke-dasharray="9.5 9.5"/>
<rect x="891.25" width="242.25" height="39.9" fill="#101112"/>
<path d="M819.028 136.506H805.784C805.175 136.506 804.68 136.012 804.68 135.403C804.68 133.431 803.629 131.609 801.921 130.624C800.214 129.638 798.11 129.638 796.403 130.624C794.696 131.609 793.644 133.431 793.644 135.403C793.644 135.695 793.528 135.976 793.321 136.183C793.114 136.39 792.833 136.506 792.541 136.506H779.297C778.95 136.506 778.622 136.343 778.414 136.065C778.209 135.789 778.144 135.435 778.238 135.105L780.445 127.379C780.538 127.039 780.788 126.765 781.118 126.64L798.776 120.018C799.026 119.93 799.299 119.93 799.549 120.018L817.207 126.64C817.536 126.765 817.787 127.039 817.88 127.379L820.087 135.105C820.181 135.435 820.116 135.789 819.911 136.065C819.702 136.343 819.375 136.506 819.028 136.506ZM806.81 134.299H817.56L815.915 128.516L799.163 122.236L782.41 128.516L780.766 134.299H791.515C791.868 131.823 793.398 129.671 795.621 128.524C797.843 127.377 800.484 127.377 802.707 128.524C804.929 129.671 806.459 131.823 806.812 134.299H806.81Z" fill="black"/>
<path d="M771.042 106.708C770.882 106.709 770.723 106.675 770.578 106.609C770.311 106.485 770.104 106.258 770.004 105.98L768.503 101.786C768.297 101.213 768.593 100.581 769.166 100.373L789.903 92.8246C790.476 92.6177 791.108 92.9138 791.316 93.4868L792.254 96.0582C792.441 96.6253 792.143 97.2387 791.581 97.4417C791.019 97.6452 790.398 97.3644 790.178 96.8086L789.616 95.2744L770.954 102.073L771.704 104.148L788.512 98.0333C788.936 97.8584 789.424 97.9644 789.737 98.2984C790.158 98.7275 790.158 99.4144 789.737 99.8435C789.624 99.9543 789.488 100.041 789.34 100.097L771.417 106.598C771.3 106.656 771.172 106.694 771.042 106.708Z" fill="black"/>
<path d="M779.915 124.576C779.45 124.575 779.035 124.284 778.878 123.847L772.079 105.185C771.969 104.916 771.969 104.615 772.079 104.346C772.204 104.078 772.431 103.872 772.708 103.773L788.48 98.0336C788.903 97.8587 789.391 97.9641 789.704 98.2982C790.125 98.7273 790.125 99.4142 789.704 99.8433C789.591 99.9541 789.456 100.041 789.307 100.097L774.53 105.472L780.578 122.026L796.106 116.376C796.383 116.267 796.693 116.274 796.964 116.397C797.236 116.519 797.447 116.747 797.548 117.027C797.65 117.308 797.633 117.617 797.503 117.885C797.372 118.153 797.139 118.357 796.856 118.451L780.301 124.476C780.18 124.533 780.049 124.566 779.915 124.576Z" fill="black"/>
<path d="M778.79 109.004C778.254 109.003 777.796 108.619 777.704 108.091C777.611 107.563 777.911 107.045 778.414 106.863L786.669 103.861C786.947 103.752 787.257 103.759 787.528 103.882C787.8 104.004 788.011 104.232 788.112 104.512C788.214 104.793 788.197 105.102 788.067 105.37C787.936 105.638 787.703 105.842 787.42 105.936L779.165 108.916C779.046 108.967 778.919 108.997 778.79 109.004Z" fill="black"/>
<path d="M780.997 114.522C780.462 114.522 780.003 114.137 779.911 113.609C779.819 113.081 780.118 112.564 780.622 112.381L787.619 109.832C787.896 109.723 788.206 109.73 788.478 109.853C788.749 109.975 788.96 110.203 789.061 110.483C789.163 110.763 789.146 111.073 789.016 111.341C788.886 111.609 788.652 111.813 788.369 111.906L781.372 114.434C781.253 114.485 781.126 114.515 780.997 114.522Z" fill="black"/>
<path d="M783.204 120.04C782.669 120.04 782.211 119.655 782.118 119.127C782.026 118.599 782.325 118.082 782.829 117.899L788.723 115.758C789 115.649 789.309 115.657 789.581 115.779C789.853 115.902 790.063 116.129 790.165 116.409C790.266 116.69 790.25 116.999 790.119 117.267C789.989 117.536 789.756 117.74 789.473 117.833L783.579 119.952C783.461 120.003 783.333 120.033 783.204 120.04Z" fill="black"/>
<path d="M790.664 115.372C790.054 115.372 789.56 114.878 789.56 114.268C789.56 113.822 789.829 113.42 790.241 113.249C790.654 113.078 791.128 113.172 791.444 113.488C791.76 113.804 791.854 114.278 791.683 114.691C791.513 115.103 791.11 115.372 790.664 115.372Z" fill="black"/>
<path d="M787.078 105.539C786.468 105.539 785.974 105.045 785.974 104.435C785.974 103.989 786.243 103.586 786.656 103.416C787.068 103.245 787.542 103.339 787.858 103.655C788.174 103.97 788.268 104.445 788.097 104.858C787.927 105.27 787.524 105.539 787.078 105.539Z" fill="black"/>
<path d="M797.982 122.601C797.517 122.601 797.102 122.309 796.945 121.872L795.488 117.833C795.3 117.266 795.598 116.652 796.16 116.449C796.722 116.246 797.344 116.527 797.562 117.082L799.019 121.121C799.226 121.694 798.93 122.327 798.357 122.535C798.237 122.578 798.11 122.601 797.982 122.601Z" fill="black"/>
<path d="M781.427 128.781C780.963 128.781 780.548 128.49 780.39 128.053L778.878 123.903C778.768 123.635 778.768 123.333 778.878 123.064C779.002 122.796 779.229 122.59 779.507 122.49L796.062 116.465C796.339 116.355 796.648 116.363 796.92 116.485C797.192 116.608 797.402 116.836 797.504 117.116C797.605 117.396 797.589 117.706 797.458 117.974C797.328 118.242 797.095 118.446 796.812 118.539L781.328 124.135L782.09 126.21L788.657 123.815C788.934 123.705 789.243 123.713 789.515 123.836C789.787 123.959 789.997 124.186 790.099 124.466C790.2 124.746 790.184 125.056 790.053 125.324C789.923 125.592 789.69 125.796 789.407 125.889L781.802 128.659C781.686 128.722 781.559 128.763 781.427 128.781Z" fill="black"/>
<path d="M827.283 106.708C827.155 106.708 827.028 106.686 826.908 106.642L809.018 100.086C808.666 99.9613 808.402 99.6667 808.315 99.3036C808.228 98.9404 808.33 98.5586 808.588 98.2876C808.916 97.9363 809.434 97.8383 809.868 98.0447L826.62 104.137L827.371 102.062L808.708 95.2749L808.146 96.7756C807.927 97.3314 807.305 97.6122 806.744 97.4087C806.181 97.2057 805.883 96.5923 806.071 96.0252L807.009 93.4647C807.216 92.8916 807.849 92.5955 808.422 92.8025L829.159 100.352C829.732 100.559 830.027 101.191 829.82 101.764L828.32 105.936C828.22 106.214 828.013 106.44 827.746 106.565C827.604 106.646 827.447 106.695 827.283 106.708Z" fill="black"/>
<path d="M818.41 124.576C818.282 124.575 818.154 124.553 818.034 124.509L801.48 118.484C801.196 118.39 800.963 118.186 800.833 117.918C800.703 117.65 800.686 117.341 800.788 117.06C800.889 116.78 801.1 116.552 801.371 116.43C801.643 116.307 801.953 116.3 802.23 116.409L817.758 122.06L823.806 105.505L809.018 100.086C808.666 99.9613 808.402 99.6667 808.315 99.3036C808.228 98.9404 808.33 98.5586 808.588 98.2876C808.916 97.9363 809.434 97.8383 809.868 98.0447L825.583 103.761C825.86 103.861 826.087 104.068 826.211 104.335C826.322 104.604 826.322 104.905 826.211 105.174L819.446 123.847C819.288 124.284 818.874 124.575 818.41 124.576Z" fill="black"/>
<path d="M819.535 109.004C819.407 109.004 819.28 108.981 819.16 108.938L810.905 105.936C810.349 105.717 810.068 105.095 810.271 104.534C810.475 103.972 811.088 103.674 811.655 103.861L819.91 106.863C820.414 107.045 820.713 107.563 820.621 108.091C820.529 108.619 820.07 109.003 819.535 109.004Z" fill="black"/>
<path d="M817.327 114.522C817.2 114.522 817.073 114.499 816.952 114.456L809.955 111.907C809.399 111.688 809.119 111.066 809.322 110.504C809.525 109.942 810.138 109.644 810.706 109.832L817.703 112.381C818.206 112.563 818.506 113.081 818.413 113.609C818.321 114.137 817.863 114.521 817.327 114.522Z" fill="black"/>
<path d="M816.897 128.781C816.769 128.781 816.642 128.758 816.522 128.715L808.918 125.945C808.634 125.852 808.402 125.647 808.271 125.379C808.141 125.111 808.125 124.801 808.226 124.521C808.328 124.241 808.538 124.014 808.81 123.891C809.081 123.768 809.391 123.76 809.669 123.87L816.235 126.265L816.997 124.19L801.469 118.484C801.186 118.391 800.953 118.187 800.822 117.919C800.692 117.65 800.675 117.341 800.777 117.061C800.878 116.78 801.089 116.553 801.361 116.43C801.632 116.307 801.942 116.3 802.219 116.409L818.774 122.435C819.052 122.534 819.278 122.741 819.403 123.009C819.514 123.277 819.514 123.579 819.403 123.848L817.924 127.997C817.787 128.452 817.372 128.768 816.897 128.781Z" fill="black"/>
<path d="M807.661 115.372C807.051 115.372 806.557 114.878 806.557 114.268C806.557 113.822 806.826 113.42 807.239 113.249C807.651 113.078 808.125 113.172 808.441 113.488C808.757 113.804 808.851 114.278 808.68 114.691C808.51 115.103 808.107 115.372 807.661 115.372Z" fill="black"/>
<path d="M811.302 105.539C810.693 105.539 810.199 105.045 810.199 104.435C810.199 103.989 810.468 103.586 810.88 103.416C811.292 103.245 811.767 103.339 812.083 103.655C812.398 103.97 812.493 104.445 812.322 104.858C812.151 105.27 811.749 105.539 811.302 105.539Z" fill="black"/>
<path d="M800.343 122.601C800.215 122.601 800.088 122.578 799.967 122.535C799.395 122.327 799.098 121.695 799.305 121.122L800.762 117.083C800.981 116.527 801.603 116.246 802.164 116.449C802.726 116.652 803.024 117.266 802.837 117.833L801.369 121.873C801.212 122.306 800.803 122.596 800.343 122.601Z" fill="black"/>
<path d="M810.926 149.75H787.397C787.103 149.751 786.822 149.637 786.613 149.43L781.823 144.64C781.616 144.431 781.502 144.15 781.503 143.856V135.403C781.503 134.793 781.998 134.299 782.607 134.299H792.54C792.832 134.299 793.113 134.415 793.32 134.622C793.527 134.829 793.644 135.11 793.644 135.403C793.644 137.374 794.695 139.196 796.402 140.181C798.11 141.167 800.213 141.167 801.921 140.181C803.628 139.196 804.68 137.374 804.68 135.403C804.68 134.793 805.174 134.299 805.783 134.299H815.716C816.009 134.299 816.289 134.415 816.496 134.622C816.703 134.829 816.82 135.11 816.82 135.403V143.856C816.821 144.15 816.706 144.432 816.499 144.64L811.709 149.43C811.501 149.637 811.22 149.751 810.926 149.75ZM787.85 147.543H810.475L814.613 143.404V136.506H806.811C806.458 138.983 804.928 141.135 802.706 142.282C800.483 143.429 797.842 143.429 795.62 142.282C793.397 141.135 791.867 138.983 791.515 136.506H783.712V143.404L787.85 147.543Z" fill="black"/>
<path d="M801.37 135.403C801.37 136.622 800.381 137.61 799.162 137.61C797.943 137.61 796.955 136.622 796.955 135.403C796.955 134.184 797.943 133.195 799.162 133.195C800.381 133.195 801.37 134.184 801.37 135.403Z" fill="black"/>
<path d="M801.37 105.605C801.37 106.824 800.381 107.812 799.162 107.812C797.943 107.812 796.955 106.824 796.955 105.605C796.955 104.386 797.943 103.397 799.162 103.397C800.381 103.397 801.37 104.386 801.37 105.605Z" fill="black"/>
<path d="M799.162 118.848C795.65 118.848 792.281 117.453 789.798 114.969C787.314 112.486 785.919 109.117 785.919 105.605C785.919 102.092 787.314 98.7237 789.798 96.2401C792.281 93.7565 795.65 92.3611 799.162 92.3611C802.675 92.3611 806.043 93.7563 808.527 96.2401C811.01 98.7238 812.406 102.092 812.406 105.605C812.406 109.117 811.011 112.486 808.527 114.969C806.043 117.453 802.675 118.848 799.162 118.848ZM799.162 94.5683C796.235 94.5683 793.428 95.7311 791.359 97.8009C789.289 99.8707 788.126 102.678 788.126 105.605C788.126 108.532 789.289 111.339 791.359 113.408C793.428 115.478 796.235 116.641 799.162 116.641C802.089 116.641 804.896 115.478 806.966 113.408C809.036 111.339 810.199 108.532 810.199 105.605C810.199 102.678 809.036 99.8707 806.966 97.8009C804.896 95.7311 802.089 94.5683 799.162 94.5683Z" fill="black"/>
<path d="M792.541 136.506C792.001 136.515 791.534 136.132 791.437 135.601L786.746 110.141C786.694 109.848 786.76 109.547 786.929 109.302C787.099 109.058 787.359 108.891 787.651 108.839C788.261 108.729 788.844 109.134 788.954 109.744L793.644 135.204C793.752 135.801 793.357 136.372 792.761 136.484L792.541 136.506Z" fill="black"/>
<path d="M805.784 136.506L805.586 136.506C804.989 136.394 804.595 135.823 804.703 135.226L809.415 109.766C809.525 109.156 810.108 108.751 810.717 108.861C811.327 108.971 811.732 109.554 811.622 110.163L806.888 135.602C806.791 136.133 806.324 136.515 805.784 136.506Z" fill="black"/>
</svg>
