<svg width="30" height="29" viewBox="0 0 30 29" fill="none" xmlns="http://www.w3.org/2000/svg">
<path d="M29.9509 20.4654L23.8831 5.72315C23.7975 5.46681 23.5412 5.33864 23.2848 5.33864L14.525 5.33834L14.8668 4.6975H18.4991L16.8753 0.808891C16.7897 0.595175 16.576 0.42438 16.3197 0.42438H1.91931C1.62005 -0.00305295 1.10734 -0.0883014 0.680263 0.0824932C0.210206 0.29621 -0.174282 0.8515 0.0820432 1.49262C3.07314 8.71425 8.24368 21.1917 11.1494 28.285C11.3202 28.6695 11.5768 28.8406 11.7476 28.8832C11.8758 28.9259 11.9613 28.9259 12.0895 28.9259C12.2177 28.9259 12.3888 28.8832 12.5169 28.8403C12.7733 28.7548 12.987 28.541 13.0725 28.3276C13.1581 28.1568 13.2433 27.8576 13.0725 27.4731L10.5085 21.3197C9.69655 19.3114 9.01277 17.7304 8.50015 16.4484H16.1063L14.269 12.0045H15.081L18.7985 20.9353C18.884 21.1916 19.1404 21.3198 19.3967 21.3198H29.2249C29.4386 21.3198 29.6523 21.2343 29.7375 21.0206C30.0362 20.8924 30.0362 20.636 29.951 20.4653L29.9509 20.4654ZM13.1148 5.21038L11.662 1.6637H15.2087L13.1148 5.21038ZM22.4302 15.765H18.1997L16.1487 10.851H20.3792L18.6271 6.57792H22.8576L24.6096 10.851H20.3792L22.4302 15.765H26.6607L28.4127 20.0381H24.1822L22.4302 15.765ZM10.551 10.851L12.303 15.1241H7.68805L5.936 10.851H10.551L8.49994 5.93711L3.88498 5.93681L2.13293 1.6637H6.79054L8.54259 5.93681H12.8157V6.06498C12.8157 6.10761 12.8583 6.15053 12.8583 6.19315L14.7811 10.8508L10.551 10.851Z" fill="#FF1801"/>
</svg>
