<svg width="17" height="19" viewBox="0 0 17 19" fill="none" xmlns="http://www.w3.org/2000/svg">
<path d="M16.6991 7.90815L12.6076 8.02829C12.1416 8.04263 11.7703 8.43574 11.7703 8.91645V10.4519C11.7703 10.9426 12.0399 11.3936 12.4646 11.615L16.71 13.8275L16.7382 14.5359L17 14.6653L14.94 19L0.864269 11.5925C0.138056 10.0599 -0.14127 8.34278 0.0672512 6.64926C0.343109 4.37194 1.6568 2.36659 3.60097 1.25155C5.59945 0.104765 7.92637 -0.269567 10.1703 0.193356C13.7893 0.939572 16.47 4.10613 16.7032 7.90836C16.1905 7.90815 16.1513 7.92424 15.8447 7.93324C16.0967 7.92584 16.5255 7.91325 16.6991 7.90815Z" fill="#F3EEDA"/>
</svg>
